# xmcd CD database file
#
# Track frame offsets:
#	150
#	15934
#	30536
#	45771
#	59913
#	75117
#	94049
#	113069
#	128715
#	153513
#	170805
#	184251
#	205971
#	224537
#	240687
#
# Disc length: 3480 seconds
#
# Revision: 0
# Processed by: cddbd v1.5.2PL0 Copyright (c) Steve Scherf et al.
# Submitted via: CDex 1.51
#
DISCID=c10d960f
DTITLE=Bandari - Emerald Valley
DYEAR=2007
DGENRE=New Age
TTITLE0=The Way To Heaven
TTITLE1=Athair Ar Neamh
TTITLE2=Kiss Of A Fairy
TTITLE3=Amarantine
TTITLE4=Night Waltz
TTITLE5=White Sand Shore
TTITLE6=The Golden Harp
TTITLE7=The Colours Of Love
TTITLE8=The Day Of Truth
TTITLE9=Sea Of Clarity
TTITLE10=Clear Sky Over The Mountain
TTITLE11=Ballerina
TTITLE12=Garden Of Peace
TTITLE13=Rose Of Tralee
TTITLE14=The Holy Flame
EXTD=YEAR: 2007
EXTT0=
EXTT1=
EXTT2=
EXTT3=
EXTT4=
EXTT5=
EXTT6=
EXTT7=
EXTT8=
EXTT9=
EXTT10=
EXTT11=
EXTT12=
EXTT13=
EXTT14=
PLAYORDER=
